# xmcd
#
# Track frame offsets: 
#        150
#        11428
#        28225
#        42900
#        57274
#        73844
#        88494
#        102202
#        113379
#        128537
#        143756
#        159923
#        178980
#
# Disc length: 2625 seconds
#
# Revision: 1
# Processed by: cddbd v1.5.2PL0 Copyright (c) Steve Scherf et al.
# Submitted via: ExactAudioCopy v0.99pb5
#
DISCID=ab0a3f0d
DTITLE=Mick Ralphs - That's Life - Can't Get Enough
DYEAR=2003
DGENRE=Hard Rock, Blues Rock, Glam Rock
TTITLE0=Under Pressure
TTITLE1=For My Baby
TTITLE2=Our Time
TTITLE3=A To Z
TTITLE4=You And Me
TTITLE5=Hey Hey
TTITLE6=Everybeat
TTITLE7=Nobody Knows Me
TTITLE8=Ain't It Good?
TTITLE9=Fool For Your Loving
TTITLE10=That's Life
TTITLE11=Budgie (Bad Company - unreleased track from 1977)
TTITLE12=Can't Get Enough (demo - 1970)
EXTD=YEAR: 2003
EXTT0=
EXTT1=
EXTT2=
EXTT3=
EXTT4=
EXTT5=
EXTT6=
EXTT7=
EXTT8=
EXTT9=
EXTT10=
EXTT11=
EXTT12=
PLAYORDER=
